<svg width="189" height="46" viewBox="0 0 189 46" fill="none" xmlns="http://www.w3.org/2000/svg">
<path d="M0 24.9244V3.23438H5.02V20.8344H15.89V24.9244H0Z" fill="#FFFFFFFF"/>
<path
    d="M26.18 25.1756C24.4 25.1756 22.83 24.8056 21.45 24.0556C20.08 23.3156 18.99 22.2956 18.2 21.0056C17.41 19.7156 17.01 18.2456 17.01 16.5956C17.01 14.9456 17.41 13.4456 18.2 12.1556C18.99 10.8656 20.08 9.85562 21.45 9.11562C22.82 8.37562 24.4 8.01562 26.18 8.01562C27.96 8.01562 29.5 8.38562 30.89 9.11562C32.27 9.84562 33.36 10.8556 34.14 12.1356C34.92 13.4156 35.32 14.9056 35.32 16.5956C35.32 18.2856 34.93 19.7156 34.14 21.0056C33.35 22.2956 32.27 23.3156 30.89 24.0556C29.51 24.7956 27.94 25.1756 26.18 25.1756ZM26.18 21.2056C26.98 21.2056 27.71 21.0156 28.35 20.6456C28.99 20.2756 29.5 19.7456 29.87 19.0456C30.24 18.3556 30.43 17.5356 30.43 16.5856C30.43 15.6356 30.24 14.7856 29.87 14.1056C29.5 13.4256 28.99 12.8956 28.35 12.5256C27.71 12.1556 26.99 11.9656 26.18 11.9656C25.37 11.9656 24.65 12.1556 24.01 12.5256C23.37 12.8956 22.86 13.4256 22.48 14.1056C22.1 14.7856 21.91 15.6156 21.91 16.5856C21.91 17.5556 22.1 18.3556 22.48 19.0456C22.86 19.7356 23.37 20.2656 24.01 20.6456C24.65 21.0156 25.37 21.2056 26.18 21.2056Z" fill="#FFFFFFFF"/>
<path
    d="M54.68 11.2139C54.08 10.1339 53.26 9.32391 52.22 8.79391C51.18 8.26391 49.99 8.00391 48.67 8.00391C47.24 8.00391 45.98 8.30391 44.86 8.90391C44.2 9.26391 43.64 9.72391 43.16 10.2539V8.25391H38.54V24.9239H43.37V16.6839C43.37 15.6539 43.54 14.8039 43.88 14.1439C44.22 13.4839 44.7 12.9939 45.31 12.6739C45.92 12.3539 46.61 12.1939 47.37 12.1939C48.44 12.1939 49.27 12.5139 49.86 13.1539C50.45 13.7939 50.74 14.7839 50.74 16.1239V24.9239H55.57V15.3839C55.57 13.6939 55.27 12.3039 54.67 11.2139" fill="#FFFFFFFF"/>
<path
    d="M72.6799 8.25562V10.3956C72.1799 9.75562 71.5899 9.23562 70.8799 8.86562C69.8099 8.29562 68.57 8.01562 67.16 8.01562C65.61 8.01562 64.2099 8.34562 62.9599 9.00562C61.7099 9.66562 60.7099 10.6056 59.9499 11.8056C59.1999 13.0156 58.8199 14.4356 58.8199 16.0656C58.8199 17.6956 59.1999 19.0856 59.9499 20.2956C60.6999 21.5056 61.7099 22.4456 62.9599 23.1156C64.2099 23.7856 65.61 24.1256 67.16 24.1256C68.5599 24.1256 69.7999 23.8356 70.8799 23.2556C71.4699 22.9356 71.9799 22.5156 72.4299 22.0156V22.7556C72.4299 24.2656 72.0399 25.3956 71.2699 26.1656C70.4899 26.9256 69.2499 27.3156 67.5399 27.3156C66.4899 27.3156 65.4199 27.1456 64.3299 26.8056C63.2499 26.4656 62.3499 26.0056 61.6499 25.4256L59.7299 28.8956C60.6999 29.6556 61.9099 30.2356 63.3699 30.6156C64.8299 30.9956 66.34 31.1856 67.91 31.1856C70.92 31.1856 73.2399 30.4556 74.8499 28.9856C76.4599 27.5156 77.2699 25.2356 77.2699 22.1356V8.25562H72.6899H72.6799ZM71.9299 18.2056C71.5599 18.8256 71.0399 19.3056 70.3799 19.6456C69.7199 19.9856 68.9699 20.1556 68.1199 20.1556C67.2699 20.1556 66.5199 19.9856 65.8599 19.6456C65.1999 19.3056 64.6799 18.8256 64.2999 18.2056C63.9199 17.5856 63.7299 16.8756 63.7299 16.0656C63.7299 15.2556 63.9199 14.5256 64.2999 13.9156C64.6799 13.3056 65.1999 12.8356 65.8599 12.4956C66.5199 12.1556 67.2699 11.9856 68.1199 11.9856C68.9699 11.9856 69.7199 12.1556 70.3799 12.4956C71.0399 12.8356 71.5599 13.3156 71.9299 13.9156C72.2999 14.5256 72.4899 15.2456 72.4899 16.0656C72.4899 16.8856 72.3099 17.5856 71.9299 18.2056Z" fill="#FFFFFFFF"/>
<path
    d="M96.93 12.0256C96.17 10.7356 95.13 9.74563 93.82 9.05563C92.51 8.36563 91.04 8.01562 89.41 8.01562C87.78 8.01562 86.2 8.38562 84.86 9.11562C83.52 9.84562 82.46 10.8556 81.68 12.1556C80.91 13.4456 80.52 14.9256 80.52 16.6056C80.52 18.2856 80.91 19.7256 81.7 21.0156C82.49 22.3056 83.6 23.3256 85.03 24.0656C86.47 24.8056 88.13 25.1856 90.03 25.1856C91.54 25.1856 92.87 24.9556 94.03 24.4856C95.19 24.0256 96.15 23.3556 96.91 22.4856L94.34 19.6956C93.78 20.2356 93.17 20.6356 92.5 20.9056C91.83 21.1756 91.05 21.3056 90.16 21.3056C89.17 21.3056 88.31 21.1256 87.57 20.7656C86.84 20.4056 86.27 19.8756 85.87 19.1856C85.65 18.8056 85.5 18.4056 85.4 17.9656H98C98.02 17.7556 98.04 17.5356 98.06 17.2956C98.08 17.0556 98.09 16.8456 98.09 16.6556C98.09 14.8556 97.71 13.3156 96.94 12.0256M87.25 12.2056C87.88 11.8456 88.61 11.6656 89.43 11.6656C90.25 11.6656 90.98 11.8456 91.6 12.2056C92.22 12.5656 92.7 13.0656 93.06 13.7056C93.29 14.1256 93.42 14.6156 93.5 15.1256H85.35C85.43 14.6156 85.56 14.1356 85.78 13.7156C86.13 13.0656 86.62 12.5556 87.25 12.1956" fill="#FFFFFFFF"/>
<path d="M112.89 8.25391L108.11 19.6039L103.5 8.25391H98.51L105.51 24.9239H110.5L117.53 8.25391H112.89Z" fill="#FFFFFFFF"/>
<path
    d="M121.93 5.93468C121.04 5.93468 120.32 5.67469 119.76 5.16469C119.2 4.64469 118.92 4.00468 118.92 3.24468C118.92 2.48468 119.2 1.84468 119.76 1.32468C120.32 0.804684 121.04 0.554688 121.93 0.554688C122.82 0.554688 123.54 0.794683 124.1 1.28468C124.66 1.77468 124.94 2.39469 124.94 3.15469C124.94 3.96469 124.67 4.62469 124.12 5.15469C123.57 5.68469 122.84 5.94469 121.94 5.94469M119.51 8.25468H124.34V24.9247H119.51V8.25468Z" fill="#FFFFFFFF"/>
<path d="M140.74 8.25391L135.96 19.6039L131.35 8.25391H126.36L133.36 24.9239H138.35L145.38 8.25391H140.74Z" fill="#FFFFFFFF"/>
<path
    d="M159.45 9.80391C158.05 8.60391 156.07 8.00391 153.53 8.00391C152.21 8.00391 150.91 8.18391 149.63 8.53391C148.35 8.88391 147.25 9.3839 146.35 10.0239L148.09 13.4039C148.69 12.9239 149.42 12.5539 150.27 12.2739C151.13 11.9939 152 11.8539 152.89 11.8539C154.19 11.8539 155.16 12.1439 155.79 12.7239C156.42 13.3039 156.74 14.1039 156.74 15.1439H152.9C151.21 15.1439 149.83 15.3539 148.78 15.7839C147.73 16.2039 146.96 16.7939 146.47 17.5339C145.98 18.2739 145.74 19.1439 145.74 20.1339C145.74 21.1239 145.99 21.9439 146.48 22.7039C146.97 23.4639 147.69 24.0739 148.62 24.5139C149.55 24.9539 150.66 25.1839 151.96 25.1839C153.43 25.1839 154.63 24.9039 155.55 24.3439C156.18 23.9639 156.67 23.4539 157.04 22.8339V24.9339H161.56V15.4239C161.56 12.8839 160.86 11.0139 159.45 9.8139M155.33 21.3439C154.69 21.7239 153.97 21.9139 153.16 21.9139C152.31 21.9139 151.65 21.7339 151.16 21.3739C150.67 21.0139 150.43 20.5239 150.43 19.9039C150.43 19.3439 150.64 18.8839 151.07 18.5139C151.49 18.1439 152.27 17.9539 153.41 17.9539H156.73V19.6539C156.44 20.3939 155.98 20.9639 155.34 21.3439" fill="#FFFFFFFF"/>
<path
    d="M77.08 39.0039L82.232 27.8039H83.048L88.2 39.0039H87.32L82.456 28.3159H82.808L77.96 39.0039H77.08ZM78.968 35.8519L79.24 35.1639H85.944L86.216 35.8519H78.968ZM94.3829 39.0839C92.9962 39.0839 91.9029 38.6786 91.1029 37.8679C90.3029 37.0572 89.9029 35.8519 89.9029 34.2519V27.8039H90.7189V34.2199C90.7189 35.6172 91.0389 36.6519 91.6789 37.3239C92.3189 37.9959 93.2255 38.3319 94.3989 38.3319C95.5615 38.3319 96.4629 37.9959 97.1029 37.3239C97.7429 36.6519 98.0629 35.6172 98.0629 34.2199V27.8039H98.8789V34.2519C98.8789 35.8519 98.4789 37.0572 97.6789 37.8679C96.8789 38.6786 95.7802 39.0839 94.3829 39.0839ZM102.686 39.0039V27.8039H107.118C108.302 27.8039 109.342 28.0439 110.238 28.5239C111.134 29.0039 111.828 29.6652 112.318 30.5079C112.82 31.3506 113.07 32.3159 113.07 33.4039C113.07 34.4919 112.82 35.4572 112.318 36.2999C111.828 37.1426 111.134 37.8039 110.238 38.2839C109.342 38.7639 108.302 39.0039 107.118 39.0039H102.686ZM103.502 38.2679H107.054C108.11 38.2679 109.028 38.0599 109.806 37.6439C110.585 37.2279 111.188 36.6572 111.614 35.9319C112.041 35.1959 112.254 34.3532 112.254 33.4039C112.254 32.4546 112.041 31.6172 111.614 30.8919C111.188 30.1559 110.585 29.5799 109.806 29.1639C109.028 28.7479 108.11 28.5399 107.054 28.5399H103.502V38.2679ZM115.905 39.0039V27.8039H116.721V39.0039H115.905ZM122.768 39.0039V28.5399H118.736V27.8039H127.616V28.5399H123.584V39.0039H122.768ZM134.235 39.0839C133.403 39.0839 132.63 38.9452 131.915 38.6679C131.211 38.3799 130.593 37.9799 130.059 37.4679C129.537 36.9452 129.131 36.3426 128.843 35.6599C128.555 34.9666 128.411 34.2146 128.411 33.4039C128.411 32.5932 128.555 31.8466 128.843 31.1639C129.131 30.4706 129.537 29.8679 130.059 29.3559C130.593 28.8332 131.211 28.4332 131.915 28.1559C132.63 27.8679 133.403 27.7239 134.235 27.7239C135.067 27.7239 135.835 27.8679 136.539 28.1559C137.254 28.4332 137.873 28.8279 138.395 29.3399C138.918 29.8519 139.323 30.4546 139.611 31.1479C139.91 31.8306 140.059 32.5826 140.059 33.4039C140.059 34.2252 139.91 34.9826 139.611 35.6759C139.323 36.3586 138.918 36.9559 138.395 37.4679C137.873 37.9799 137.254 38.3799 136.539 38.6679C135.835 38.9452 135.067 39.0839 134.235 39.0839ZM134.235 38.3319C134.95 38.3319 135.611 38.2092 136.219 37.9639C136.827 37.7186 137.355 37.3719 137.803 36.9239C138.251 36.4759 138.598 35.9532 138.843 35.3559C139.099 34.7586 139.227 34.1079 139.227 33.4039C139.227 32.6892 139.099 32.0386 138.843 31.4519C138.598 30.8546 138.251 30.3319 137.803 29.8839C137.355 29.4359 136.827 29.0892 136.219 28.8439C135.611 28.5986 134.95 28.4759 134.235 28.4759C133.521 28.4759 132.859 28.5986 132.251 28.8439C131.643 29.0892 131.11 29.4359 130.651 29.8839C130.203 30.3319 129.851 30.8546 129.595 31.4519C129.35 32.0386 129.227 32.6892 129.227 33.4039C129.227 34.1079 129.35 34.7586 129.595 35.3559C129.851 35.9532 130.203 36.4759 130.651 36.9239C131.11 37.3719 131.643 37.7186 132.251 37.9639C132.859 38.2092 133.521 38.3319 134.235 38.3319ZM142.89 39.0039V27.8039H146.906C147.844 27.8039 148.65 27.9532 149.322 28.2519C149.994 28.5506 150.511 28.9826 150.874 29.5479C151.236 30.1026 151.418 30.7799 151.418 31.5799C151.418 32.3586 151.236 33.0306 150.874 33.5959C150.511 34.1506 149.994 34.5826 149.322 34.8919C148.65 35.1906 147.844 35.3399 146.906 35.3399H143.338L143.706 34.9559V39.0039H142.89ZM150.666 39.0039L147.754 34.9399H148.682L151.594 39.0039H150.666ZM143.706 35.0039L143.338 34.6199H146.906C148.111 34.6199 149.023 34.3532 149.642 33.8199C150.271 33.2866 150.586 32.5399 150.586 31.5799C150.586 30.6092 150.271 29.8626 149.642 29.3399C149.023 28.8066 148.111 28.5399 146.906 28.5399H143.338L143.706 28.1399V35.0039ZM156.889 39.0039V34.9399L157.081 35.4679L152.377 27.8039H153.273L157.545 34.7639H157.097L161.369 27.8039H162.217L157.513 35.4679L157.705 34.9399V39.0039H156.889Z" fill="#FFFFFFFF"/>
</svg>
