<svg width="189" height="139" viewBox="0 0 189 139" fill="none" xmlns="http://www.w3.org/2000/svg">
<path d="M0 117.924V96.2344H5.02V113.834H15.89V117.924H0Z" fill="#035861"/>
<path d="M26.18 118.176C24.4 118.176 22.83 117.806 21.45 117.056C20.08 116.316 18.99 115.296 18.2 114.006C17.41 112.716 17.01 111.246 17.01 109.596C17.01 107.946 17.41 106.446 18.2 105.156C18.99 103.866 20.08 102.856 21.45 102.116C22.82 101.376 24.4 101.016 26.18 101.016C27.96 101.016 29.5 101.386 30.89 102.116C32.27 102.846 33.36 103.856 34.14 105.136C34.92 106.416 35.32 107.906 35.32 109.596C35.32 111.286 34.93 112.716 34.14 114.006C33.35 115.296 32.27 116.316 30.89 117.056C29.51 117.796 27.94 118.176 26.18 118.176ZM26.18 114.206C26.98 114.206 27.71 114.016 28.35 113.646C28.99 113.276 29.5 112.746 29.87 112.046C30.24 111.356 30.43 110.536 30.43 109.586C30.43 108.636 30.24 107.786 29.87 107.106C29.5 106.426 28.99 105.896 28.35 105.526C27.71 105.156 26.99 104.966 26.18 104.966C25.37 104.966 24.65 105.156 24.01 105.526C23.37 105.896 22.86 106.426 22.48 107.106C22.1 107.786 21.91 108.616 21.91 109.586C21.91 110.556 22.1 111.356 22.48 112.046C22.86 112.736 23.37 113.266 24.01 113.646C24.65 114.016 25.37 114.206 26.18 114.206Z" fill="#035861"/>
<path d="M54.68 104.214C54.08 103.134 53.26 102.324 52.22 101.794C51.18 101.264 49.99 101.004 48.67 101.004C47.24 101.004 45.98 101.304 44.86 101.904C44.2 102.264 43.64 102.724 43.16 103.254V101.254H38.54V117.924H43.37V109.684C43.37 108.654 43.54 107.804 43.88 107.144C44.22 106.484 44.7 105.994 45.31 105.674C45.92 105.354 46.61 105.194 47.37 105.194C48.44 105.194 49.27 105.514 49.86 106.154C50.45 106.794 50.74 107.784 50.74 109.124V117.924H55.57V108.384C55.57 106.694 55.27 105.304 54.67 104.214" fill="#035861"/>
<path d="M72.6799 101.256V103.396C72.1799 102.756 71.5899 102.236 70.8799 101.866C69.8099 101.296 68.57 101.016 67.16 101.016C65.61 101.016 64.2099 101.346 62.9599 102.006C61.7099 102.666 60.7099 103.606 59.9499 104.806C59.1999 106.016 58.8199 107.436 58.8199 109.066C58.8199 110.696 59.1999 112.086 59.9499 113.296C60.6999 114.506 61.7099 115.446 62.9599 116.116C64.2099 116.786 65.61 117.126 67.16 117.126C68.5599 117.126 69.7999 116.836 70.8799 116.256C71.4699 115.936 71.9799 115.516 72.4299 115.016V115.756C72.4299 117.266 72.0399 118.396 71.2699 119.166C70.4899 119.926 69.2499 120.316 67.5399 120.316C66.4899 120.316 65.4199 120.146 64.3299 119.806C63.2499 119.466 62.3499 119.006 61.6499 118.426L59.7299 121.896C60.6999 122.656 61.9099 123.236 63.3699 123.616C64.8299 123.996 66.34 124.186 67.91 124.186C70.92 124.186 73.2399 123.456 74.8499 121.986C76.4599 120.516 77.2699 118.236 77.2699 115.136V101.256H72.6899H72.6799ZM71.9299 111.206C71.5599 111.826 71.0399 112.306 70.3799 112.646C69.7199 112.986 68.9699 113.156 68.1199 113.156C67.2699 113.156 66.5199 112.986 65.8599 112.646C65.1999 112.306 64.6799 111.826 64.2999 111.206C63.9199 110.586 63.7299 109.876 63.7299 109.066C63.7299 108.256 63.9199 107.526 64.2999 106.916C64.6799 106.306 65.1999 105.836 65.8599 105.496C66.5199 105.156 67.2699 104.986 68.1199 104.986C68.9699 104.986 69.7199 105.156 70.3799 105.496C71.0399 105.836 71.5599 106.316 71.9299 106.916C72.2999 107.526 72.4899 108.246 72.4899 109.066C72.4899 109.886 72.3099 110.586 71.9299 111.206Z" fill="#035861"/>
<path d="M96.93 105.026C96.17 103.736 95.13 102.746 93.82 102.056C92.51 101.366 91.04 101.016 89.41 101.016C87.78 101.016 86.2 101.386 84.86 102.116C83.52 102.846 82.46 103.856 81.68 105.156C80.91 106.446 80.52 107.926 80.52 109.606C80.52 111.286 80.91 112.726 81.7 114.016C82.49 115.306 83.6 116.326 85.03 117.066C86.47 117.806 88.13 118.186 90.03 118.186C91.54 118.186 92.87 117.956 94.03 117.486C95.19 117.026 96.15 116.356 96.91 115.486L94.34 112.696C93.78 113.236 93.17 113.636 92.5 113.906C91.83 114.176 91.05 114.306 90.16 114.306C89.17 114.306 88.31 114.126 87.57 113.766C86.84 113.406 86.27 112.876 85.87 112.186C85.65 111.806 85.5 111.406 85.4 110.966H98C98.02 110.756 98.04 110.536 98.06 110.296C98.08 110.056 98.09 109.846 98.09 109.656C98.09 107.856 97.71 106.316 96.94 105.026M87.25 105.206C87.88 104.846 88.61 104.666 89.43 104.666C90.25 104.666 90.98 104.846 91.6 105.206C92.22 105.566 92.7 106.066 93.06 106.706C93.29 107.126 93.42 107.616 93.5 108.126H85.35C85.43 107.616 85.56 107.136 85.78 106.716C86.13 106.066 86.62 105.556 87.25 105.196" fill="#035861"/>
<path d="M112.89 101.254L108.11 112.604L103.5 101.254H98.51L105.51 117.924H110.5L117.53 101.254H112.89Z" fill="#035861"/>
<path d="M121.93 98.9347C121.04 98.9347 120.32 98.6747 119.76 98.1647C119.2 97.6447 118.92 97.0047 118.92 96.2447C118.92 95.4847 119.2 94.8447 119.76 94.3247C120.32 93.8047 121.04 93.5547 121.93 93.5547C122.82 93.5547 123.54 93.7947 124.1 94.2847C124.66 94.7747 124.94 95.3947 124.94 96.1547C124.94 96.9647 124.67 97.6247 124.12 98.1547C123.57 98.6847 122.84 98.9447 121.94 98.9447M119.51 101.255H124.34V117.925H119.51V101.255Z" fill="#035861"/>
<path d="M140.74 101.254L135.96 112.604L131.35 101.254H126.36L133.36 117.924H138.35L145.38 101.254H140.74Z" fill="#035861"/>
<path d="M159.45 102.804C158.05 101.604 156.07 101.004 153.53 101.004C152.21 101.004 150.91 101.184 149.63 101.534C148.35 101.884 147.25 102.384 146.35 103.024L148.09 106.404C148.69 105.924 149.42 105.554 150.27 105.274C151.13 104.994 152 104.854 152.89 104.854C154.19 104.854 155.16 105.144 155.79 105.724C156.42 106.304 156.74 107.104 156.74 108.144H152.9C151.21 108.144 149.83 108.354 148.78 108.784C147.73 109.204 146.96 109.794 146.47 110.534C145.98 111.274 145.74 112.144 145.74 113.134C145.74 114.124 145.99 114.944 146.48 115.704C146.97 116.464 147.69 117.074 148.62 117.514C149.55 117.954 150.66 118.184 151.96 118.184C153.43 118.184 154.63 117.904 155.55 117.344C156.18 116.964 156.67 116.454 157.04 115.834V117.934H161.56V108.424C161.56 105.884 160.86 104.014 159.45 102.814M155.33 114.344C154.69 114.724 153.97 114.914 153.16 114.914C152.31 114.914 151.65 114.734 151.16 114.374C150.67 114.014 150.43 113.524 150.43 112.904C150.43 112.344 150.64 111.884 151.07 111.514C151.49 111.144 152.27 110.954 153.41 110.954H156.73V112.654C156.44 113.394 155.98 113.964 155.34 114.344" fill="#035861"/>
<path d="M41.92 54.7823C43.67 53.3623 46 52.8823 48.2 52.6723C52.41 52.2823 56.66 52.5823 60.87 52.1723C61.25 52.1323 61.61 52.0623 61.99 52.0123C63.05 51.8723 64.08 51.6623 65.11 51.4123C65.09 43.1523 65.21 24.0823 65.2 15.1323C65.2 15.1123 65.2 15.0823 65.2 15.0623C65.82 5.01225 64.75 0.882253 57.92 0.102253C56.04 -0.107747 48.49 0.0322531 47.38 0.282253C44.09 1.05225 41.54 3.69225 41.26 7.44225C41.26 7.47225 41.26 7.51225 41.26 7.54225C41.21 21.1723 41.3 39.2323 41.32 55.3223C41.32 55.3223 41.32 55.3223 41.33 55.3123C41.52 55.1223 41.72 54.9523 41.93 54.7823H41.92Z" fill="#045861"/>
<path d="M120.24 0.772014C118.58 0.0220139 116.8 0.102014 115.01 0.0520139C112.72 -0.00798609 110.42 -0.0179861 108.13 0.0320139C106.15 0.0720139 104.46 0.322014 102.89 1.65201C101.24 3.04201 100.53 4.77201 100.36 6.90201C100.1 10.172 99.72 13.582 99.04 16.792C98.05 21.452 96.44 25.972 94.29 30.192C88.44 41.692 78.15 51.922 65.81 55.122C65.6 55.172 65.4 55.222 65.19 55.272C64.16 55.522 63.12 55.742 62.07 55.882C61.7 55.932 61.33 56.002 60.95 56.042C56.74 56.462 52.49 56.152 48.28 56.552C46.08 56.762 43.76 57.262 42 58.712C41.79 58.882 41.59 59.062 41.4 59.252C41.4 59.252 41.4 59.252 41.39 59.262C39.33 61.422 38.2 64.912 38.28 67.902C38.34 69.972 38.28 72.072 38.22 74.152C38.2 74.862 38.19 75.562 38.18 76.262C38.12 81.042 42.85 83.412 46.73 83.712C52.82 84.182 59.25 82.842 65.14 81.332C71 79.832 76.7 77.682 82.11 74.922C87.54 72.162 92.66 68.812 97.35 64.862C97.92 64.382 98.5 63.912 99.04 63.402C113.87 49.322 123.29 28.782 124.08 7.85201C124.19 4.90201 122.92 1.97201 120.23 0.752014L120.24 0.772014Z" fill="#54B097"/>
<path d="M88.6299 2.18319C93.1899 6.41319 91.9799 14.7932 86.0899 17.0732C77.4699 20.4132 69.9599 10.4932 75.7799 3.15319C78.6599 -0.486812 85.2699 -0.926812 88.6399 2.18319" fill="#045861"/>
<path d="M77.08 132.004L82.232 120.804H83.048L88.2 132.004H87.32L82.456 121.316H82.808L77.96 132.004H77.08ZM78.968 128.852L79.24 128.164H85.944L86.216 128.852H78.968ZM94.3829 132.084C92.9962 132.084 91.9029 131.679 91.1029 130.868C90.3029 130.057 89.9029 128.852 89.9029 127.252V120.804H90.7189V127.22C90.7189 128.617 91.0389 129.652 91.6789 130.324C92.3189 130.996 93.2255 131.332 94.3989 131.332C95.5615 131.332 96.4629 130.996 97.1029 130.324C97.7429 129.652 98.0629 128.617 98.0629 127.22V120.804H98.8789V127.252C98.8789 128.852 98.4789 130.057 97.6789 130.868C96.8789 131.679 95.7802 132.084 94.3829 132.084ZM102.686 132.004V120.804H107.118C108.302 120.804 109.342 121.044 110.238 121.524C111.134 122.004 111.828 122.665 112.318 123.508C112.82 124.351 113.07 125.316 113.07 126.404C113.07 127.492 112.82 128.457 112.318 129.3C111.828 130.143 111.134 130.804 110.238 131.284C109.342 131.764 108.302 132.004 107.118 132.004H102.686ZM103.502 131.268H107.054C108.11 131.268 109.028 131.06 109.806 130.644C110.585 130.228 111.188 129.657 111.614 128.932C112.041 128.196 112.254 127.353 112.254 126.404C112.254 125.455 112.041 124.617 111.614 123.892C111.188 123.156 110.585 122.58 109.806 122.164C109.028 121.748 108.11 121.54 107.054 121.54H103.502V131.268ZM115.905 132.004V120.804H116.721V132.004H115.905ZM122.768 132.004V121.54H118.736V120.804H127.616V121.54H123.584V132.004H122.768ZM134.235 132.084C133.403 132.084 132.63 131.945 131.915 131.668C131.211 131.38 130.593 130.98 130.059 130.468C129.537 129.945 129.131 129.343 128.843 128.66C128.555 127.967 128.411 127.215 128.411 126.404C128.411 125.593 128.555 124.847 128.843 124.164C129.131 123.471 129.537 122.868 130.059 122.356C130.593 121.833 131.211 121.433 131.915 121.156C132.63 120.868 133.403 120.724 134.235 120.724C135.067 120.724 135.835 120.868 136.539 121.156C137.254 121.433 137.873 121.828 138.395 122.34C138.918 122.852 139.323 123.455 139.611 124.148C139.91 124.831 140.059 125.583 140.059 126.404C140.059 127.225 139.91 127.983 139.611 128.676C139.323 129.359 138.918 129.956 138.395 130.468C137.873 130.98 137.254 131.38 136.539 131.668C135.835 131.945 135.067 132.084 134.235 132.084ZM134.235 131.332C134.95 131.332 135.611 131.209 136.219 130.964C136.827 130.719 137.355 130.372 137.803 129.924C138.251 129.476 138.598 128.953 138.843 128.356C139.099 127.759 139.227 127.108 139.227 126.404C139.227 125.689 139.099 125.039 138.843 124.452C138.598 123.855 138.251 123.332 137.803 122.884C137.355 122.436 136.827 122.089 136.219 121.844C135.611 121.599 134.95 121.476 134.235 121.476C133.521 121.476 132.859 121.599 132.251 121.844C131.643 122.089 131.11 122.436 130.651 122.884C130.203 123.332 129.851 123.855 129.595 124.452C129.35 125.039 129.227 125.689 129.227 126.404C129.227 127.108 129.35 127.759 129.595 128.356C129.851 128.953 130.203 129.476 130.651 129.924C131.11 130.372 131.643 130.719 132.251 130.964C132.859 131.209 133.521 131.332 134.235 131.332ZM142.89 132.004V120.804H146.906C147.844 120.804 148.65 120.953 149.322 121.252C149.994 121.551 150.511 121.983 150.874 122.548C151.236 123.103 151.418 123.78 151.418 124.58C151.418 125.359 151.236 126.031 150.874 126.596C150.511 127.151 149.994 127.583 149.322 127.892C148.65 128.191 147.844 128.34 146.906 128.34H143.338L143.706 127.956V132.004H142.89ZM150.666 132.004L147.754 127.94H148.682L151.594 132.004H150.666ZM143.706 128.004L143.338 127.62H146.906C148.111 127.62 149.023 127.353 149.642 126.82C150.271 126.287 150.586 125.54 150.586 124.58C150.586 123.609 150.271 122.863 149.642 122.34C149.023 121.807 148.111 121.54 146.906 121.54H143.338L143.706 121.14V128.004ZM156.889 132.004V127.94L157.081 128.468L152.377 120.804H153.273L157.545 127.764H157.097L161.369 120.804H162.217L157.513 128.468L157.705 127.94V132.004H156.889Z" fill="#025861"/>
</svg>
