<svg width="87" height="84" viewBox="0 0 87 84" fill="none" xmlns="http://www.w3.org/2000/svg">
<path d="M3.92004 54.7823C5.67004 53.3623 8.00004 52.8823 10.2 52.6723C14.41 52.2823 18.66 52.5823 22.87 52.1723C23.25 52.1323 23.61 52.0623 23.99 52.0123C25.05 51.8723 26.08 51.6623 27.11 51.4123C27.09 43.1523 27.21 24.0823 27.2 15.1323C27.2 15.1123 27.2 15.0823 27.2 15.0623C27.82 5.01225 26.75 0.882253 19.92 0.102253C18.04 -0.107747 10.49 0.0322531 9.38004 0.282253C6.09004 1.05225 3.54004 3.69225 3.26004 7.44225C3.26004 7.47225 3.26004 7.51225 3.26004 7.54225C3.21004 21.1723 3.30004 39.2323 3.32004 55.3223C3.32004 55.3223 3.32005 55.3223 3.33005 55.3123C3.52005 55.1223 3.72004 54.9523 3.93004 54.7823H3.92004Z" fill="#045861"/>
<path d="M82.24 0.772014C80.58 0.0220139 78.8 0.102014 77.01 0.0520139C74.72 -0.00798609 72.42 -0.0179861 70.13 0.0320139C68.15 0.0720139 66.46 0.322014 64.89 1.65201C63.24 3.04201 62.53 4.77201 62.36 6.90201C62.1 10.172 61.72 13.582 61.04 16.792C60.05 21.452 58.44 25.972 56.29 30.192C50.44 41.692 40.15 51.922 27.81 55.122C27.6 55.172 27.4 55.222 27.19 55.272C26.16 55.522 25.12 55.742 24.07 55.882C23.7 55.932 23.33 56.002 22.95 56.042C18.74 56.462 14.49 56.152 10.28 56.552C8.08001 56.762 5.76001 57.262 4.00001 58.712C3.79001 58.882 3.59001 59.062 3.40001 59.252C3.40001 59.252 3.40001 59.252 3.39001 59.262C1.33001 61.422 0.200007 64.912 0.280007 67.902C0.340007 69.972 0.280009 72.072 0.220009 74.152C0.200009 74.862 0.190008 75.562 0.180008 76.262C0.120008 81.042 4.85001 83.412 8.73001 83.712C14.82 84.182 21.25 82.842 27.14 81.332C33 79.832 38.7 77.682 44.11 74.922C49.54 72.162 54.66 68.812 59.35 64.862C59.92 64.382 60.5 63.912 61.04 63.402C75.87 49.322 85.29 28.782 86.08 7.85201C86.19 4.90201 84.92 1.97201 82.23 0.752014L82.24 0.772014Z" fill="#54B097"/>
<path d="M50.6299 2.18319C55.1899 6.41319 53.9799 14.7932 48.0899 17.0732C39.4699 20.4132 31.9599 10.4932 37.7799 3.15319C40.6599 -0.486812 47.2699 -0.926812 50.6399 2.18319" fill="#045861"/>
</svg>
