<svg width="1728" height="1117" viewBox="0 0 1728 1117" fill="none" xmlns="http://www.w3.org/2000/svg">
<rect width="1728" height="1117" fill="#EBEFEE"/>
<mask id="mask0_1430_8937" style="mask-type:alpha" maskUnits="userSpaceOnUse" x="0" y="0" width="1728" height="1117">
<rect width="1728" height="1117" fill="#EBEFEE"/>
</mask>
<g mask="url(#mask0_1430_8937)">
<path d="M166.398 398.598C166.094 460.113 115.898 509.847 54.4231 509.542C-7.05174 509.238 -56.7527 459.01 -56.4483 397.496C-56.1439 335.981 -6.29762 286.245 55.5265 286.551C117.351 286.857 166.702 337.083 166.398 398.598Z" fill="#59B69B"/>
<path d="M560.398 58.5982C560.094 120.113 509.898 169.847 448.423 169.542C386.948 169.238 337.247 119.01 337.552 57.4955C337.856 -4.01924 387.702 -53.7546 449.527 -53.4487C511.351 -53.1427 560.702 -2.91654 560.398 58.5982Z" fill="#59B69B"/>
<path opacity="0.73" d="M1784.4 382.598C1784.09 444.113 1733.9 493.847 1672.42 493.542C1610.95 493.238 1561.25 443.01 1561.55 381.496C1561.86 319.981 1611.7 270.245 1673.53 270.551C1735.35 270.857 1784.7 321.083 1784.4 382.598Z" fill="#59B69B"/>
<path d="M1336.4 335.598C1336.09 397.113 1285.9 446.847 1224.42 446.542C1162.95 446.238 1113.25 396.01 1113.55 334.496C1113.86 272.981 1163.7 223.245 1225.53 223.551C1287.35 223.857 1336.7 274.083 1336.4 335.598Z" fill="#59B69B" fill-opacity="0.46"/>
<path d="M523.398 1086.6C523.094 1148.11 472.898 1197.85 411.423 1197.54C349.948 1197.24 300.247 1147.01 300.552 1085.5C300.856 1023.98 350.702 974.245 412.527 974.551C474.351 974.857 523.702 1025.08 523.398 1086.6Z" fill="#59B69B" fill-opacity="0.46"/>
<path d="M258.542 862.518C258.289 913.608 216.599 954.914 165.542 954.662C114.484 954.409 73.2055 912.693 73.4583 861.602C73.7111 810.511 115.111 769.204 166.458 769.458C217.806 769.712 258.795 811.427 258.542 862.518Z" fill="#59B69B" fill-opacity="0.46"/>
<path d="M1653.96 815.514C1670.06 870.929 1638.15 928.976 1582.74 945.079C1527.32 961.181 1469.28 929.273 1453.17 873.858C1437.07 818.442 1468.98 760.395 1524.39 744.293C1579.81 728.19 1637.85 760.098 1653.96 815.514Z" stroke="#025861" stroke-width="0.6" stroke-miterlimit="10" stroke-dasharray="1.85 1.85"/>
<path d="M1717.85 381.783C1717.73 406.249 1697.77 426.03 1673.32 425.909C1648.87 425.788 1629.1 405.811 1629.22 381.345C1629.34 356.879 1649.17 337.098 1673.75 337.219C1698.34 337.341 1717.97 357.317 1717.85 381.783Z" fill="#59B69B"/>
<path d="M1501.85 999.783C1501.73 1024.25 1481.77 1044.03 1457.32 1043.91C1432.87 1043.79 1413.1 1023.81 1413.22 999.345C1413.34 974.879 1433.17 955.098 1457.75 955.219C1482.34 955.341 1501.97 975.317 1501.85 999.783Z" fill="#59B69B"/>
<path d="M210.747 861.843C210.646 882.163 194.065 898.591 173.758 898.491C153.451 898.39 137.034 881.799 137.134 861.479C137.235 841.159 153.7 824.73 174.123 824.831C194.545 824.932 210.847 841.523 210.747 861.843Z" fill="#59B69B"/>
</g>
</svg>
