<svg width="57" height="51" viewBox="0 0 57 51" fill="none" xmlns="http://www.w3.org/2000/svg">
<path d="M55 8.5H48.5ZM48.5 8.5H42ZM48.5 8.5V2ZM48.5 8.5V15Z" fill="#D9D9D9"/>
<path d="M55 8.5H48.5ZM48.5 8.5H42ZM48.5 8.5V2ZM48.5 8.5V15Z" fill="#D9D9D9"/>
<path d="M55 8.5H48.5M48.5 8.5H42M48.5 8.5V2M48.5 8.5V15M48.5 8.5H42" stroke="#025861" stroke-width="2.5" stroke-linecap="round"/>
<path d="M9 21.625H40.875M16.0833 11V14.5417M33.7917 11V14.5417M14.3125 26.9375H17.8542M23.1667 26.9375H26.7083M32.0208 26.9375H35.5625M14.3125 32.25H17.8542M23.1667 32.25H26.7083M32.0208 32.25H35.5625M14.3125 37.5625H17.8542M23.1667 37.5625H26.7083M32.0208 37.5625H35.5625M14.6667 42.875H35.2083C37.1918 42.875 38.1837 42.875 38.9413 42.489C39.6076 42.1495 40.1495 41.6076 40.489 40.9413C40.875 40.1837 40.875 39.1918 40.875 37.2083V20.2083C40.875 18.2248 40.875 17.2331 40.489 16.4755C40.1495 15.809 39.6076 15.2672 38.9413 14.9277C38.1837 14.5417 37.1918 14.5417 35.2083 14.5417H14.6667C12.6832 14.5417 11.6914 14.5417 10.9338 14.9277C10.2674 15.2672 9.72556 15.809 9.38602 16.4755C9 17.2331 9 18.2248 9 20.2083V37.2083C9 39.1918 9 40.1837 9.38602 40.9413C9.72556 41.6076 10.2674 42.1495 10.9338 42.489C11.6914 42.875 12.6831 42.875 14.6667 42.875Z" stroke="#025861" stroke-width="3" stroke-linecap="round"/>
</svg>
