<svg width="28" height="28" viewBox="0 0 28 28" fill="none" xmlns="http://www.w3.org/2000/svg">
<g clip-path="url(#clip0_787_3148)">
<path fill-rule="evenodd" clip-rule="evenodd" d="M20.125 14.875H10.8623L14.469 18.48C14.8103 18.8212 14.8103 19.3813 14.469 19.7225C14.1269 20.0638 13.573 20.0638 13.2309 19.7225L8.28099 14.77C8.07187 14.56 8.00624 14.2712 8.05436 14C8.00624 13.7288 8.07187 13.44 8.28099 13.23L13.2309 8.27747C13.573 7.93622 14.1269 7.93622 14.469 8.27747C14.8103 8.62747 14.8103 9.17875 14.469 9.52L10.8623 13.125H20.125C20.608 13.125 21 13.5188 21 14C21 14.4812 20.608 14.875 20.125 14.875ZM14 0C6.2685 0 0 6.265 0 14C0 21.735 6.2685 28 14 28C21.7315 28 28 21.735 28 14C28 6.265 21.7315 0 14 0Z" fill="#75C0AC"/>
</g>
<defs>
<clipPath id="clip0_787_3148">
<rect width="28" height="28" fill="white"/>
</clipPath>
</defs>
</svg>
