<svg width="36" height="36" viewBox="0 0 36 36" fill="none" xmlns="http://www.w3.org/2000/svg">
<path d="M2 12.625H33.875M9.08333 2V5.54167M26.7917 2V5.54167M7.3125 17.9375H10.8542M16.1667 17.9375H19.7083M25.0208 17.9375H28.5625M7.3125 23.25H10.8542M16.1667 23.25H19.7083M25.0208 23.25H28.5625M7.3125 28.5625H10.8542M16.1667 28.5625H19.7083M25.0208 28.5625H28.5625M7.66667 33.875H28.2083C30.1918 33.875 31.1837 33.875 31.9413 33.489C32.6076 33.1495 33.1495 32.6076 33.489 31.9413C33.875 31.1837 33.875 30.1918 33.875 28.2083V11.2083C33.875 9.2248 33.875 8.23305 33.489 7.47545C33.1495 6.80903 32.6076 6.26723 31.9413 5.92769C31.1837 5.54167 30.1918 5.54167 28.2083 5.54167H7.66667C5.68316 5.54167 4.69138 5.54167 3.93379 5.92769C3.26737 6.26723 2.72556 6.80903 2.38602 7.47545C2 8.23305 2 9.2248 2 11.2083V28.2083C2 30.1918 2 31.1837 2.38602 31.9413C2.72556 32.6076 3.26737 33.1495 3.93379 33.489C4.69138 33.875 5.68314 33.875 7.66667 33.875Z" stroke="#025861" stroke-width="3" stroke-linecap="round"/>
</svg>
