<svg width="224" height="141" viewBox="0 0 224 141" fill="none" xmlns="http://www.w3.org/2000/svg">
<path d="M43.2224 18.8428L0 47.7559L42.5739 111.4L85.7963 82.4869L43.2224 18.8428Z" fill="#F5F5F5"/>
<path d="M63.4667 79.4742L62.9736 82.5097L41.4858 79.4125L41.9789 76.377L63.4667 79.4742Z" fill="#E0E0E0"/>
<path d="M52.6418 68.6426L55.7274 69.0894L52.3066 90.2459L49.2249 89.7991L52.6418 68.6426Z" fill="#E0E0E0"/>
<path d="M32.8526 41.7545C32.8834 41.8007 28.5535 44.7515 23.1796 48.3456C17.8058 51.9398 13.4258 54.8174 13.3949 54.7712C13.3641 54.7249 17.694 51.7741 23.0679 48.18C28.4418 44.5859 32.8218 41.7082 32.8526 41.7545Z" fill="#E0E0E0"/>
<path d="M48.7471 37.764C48.778 37.8102 41.5743 42.6833 32.6602 48.6427C23.7423 54.6059 16.4923 59.402 16.4615 59.3557C16.4307 59.3095 23.6305 54.4403 32.5485 48.4732C41.4626 42.5099 48.7163 37.7139 48.7471 37.7601V37.764Z" fill="#E0E0E0"/>
<path d="M51.9329 42.5296C51.9637 42.5758 44.7601 47.4489 35.846 53.4083C26.928 59.3716 19.6781 64.1676 19.6473 64.1214C19.6165 64.0751 26.8163 59.2059 35.7343 53.2388C44.6483 47.2755 51.9021 42.4795 51.9329 42.5257V42.5296Z" fill="#E0E0E0"/>
<path d="M55.1187 47.2952C55.1495 47.3414 47.9458 52.2145 39.0318 58.1739C30.1138 64.1372 22.8639 68.9332 22.8331 68.887C22.8023 68.8408 30.0021 63.9715 38.9201 58.0044C47.8341 52.0412 55.0879 47.2451 55.1187 47.2913V47.2952Z" fill="#E0E0E0"/>
<path d="M58.3082 52.055C58.339 52.1012 51.1353 56.9743 42.2212 62.9337C33.3033 68.897 26.0534 73.693 26.0226 73.6468C25.9917 73.6005 33.1916 68.7313 42.1095 62.7642C51.0236 56.8009 58.2774 52.0049 58.3082 52.0511V52.055Z" fill="#E0E0E0"/>
<path d="M187.755 61.4931L151.455 85.7754L187.209 139.225L223.509 114.942L187.755 61.4931Z" fill="#F5F5F5"/>
<path d="M204.755 112.419L204.347 114.969L186.299 112.369L186.711 109.818L204.755 112.419Z" fill="#E0E0E0"/>
<path d="M195.668 103.324L198.26 103.698L195.387 121.464L192.798 121.091L195.668 103.324Z" fill="#E0E0E0"/>
<path d="M179.049 80.7428C179.08 80.789 175.447 83.2737 170.932 86.29C166.418 89.3102 162.735 91.7178 162.704 91.6716C162.673 91.6254 166.306 89.1407 170.821 86.1205C175.332 83.1042 179.018 80.6927 179.049 80.7389V80.7428Z" fill="#E0E0E0"/>
<path d="M192.397 77.391C192.428 77.4372 186.383 81.536 178.895 86.5439C171.406 91.5518 165.312 95.5736 165.281 95.5274C165.25 95.4811 171.294 91.3862 178.783 86.3744C186.268 81.3665 192.366 77.3448 192.397 77.391Z" fill="#E0E0E0"/>
<path d="M195.074 81.391C195.105 81.4372 189.061 85.536 181.572 90.5439C174.083 95.5519 167.989 99.5736 167.958 99.5274C167.928 99.4811 173.972 95.3862 181.46 90.3744C188.945 85.3665 195.043 81.3448 195.074 81.391Z" fill="#E0E0E0"/>
<path d="M197.748 85.3929C197.778 85.4391 191.734 89.5379 184.246 94.542C176.757 99.5499 170.663 103.572 170.632 103.525C170.601 103.479 176.645 99.3843 184.134 94.3725C191.619 89.3646 197.717 85.3428 197.748 85.3891V85.3929Z" fill="#E0E0E0"/>
<path d="M200.425 89.391C200.456 89.4372 194.412 93.536 186.923 98.5439C179.434 103.552 173.34 107.574 173.309 107.527C173.278 107.481 179.323 103.386 186.811 98.3744C194.296 93.3665 200.394 89.3448 200.425 89.391Z" fill="#E0E0E0"/>
<path d="M130.329 21.1841L90.7212 0L59.5282 58.3213L99.136 79.5054L130.329 21.1841Z" fill="#F5F5F5"/>
<path d="M92.3585 61.2605L89.843 62.1196L83.4675 44.4879L85.9792 43.625L92.3585 61.2605Z" fill="#E0E0E0"/>
<path d="M96.2108 48.6094L97.1276 51.1403L79.6153 57.1344L78.6985 54.6073L96.2108 48.6094Z" fill="#E0E0E0"/>
<path d="M108.653 22.5901C108.623 22.6479 104.605 20.56 99.6816 17.925C94.7546 15.2901 90.7906 13.1097 90.8215 13.052C90.8523 12.9942 94.8702 15.0821 99.7933 17.717C104.716 20.3519 108.684 22.5323 108.653 22.5901Z" fill="#E0E0E0"/>
<path d="M118.157 33.0797C118.126 33.1374 111.477 29.6435 103.31 25.275C95.1397 20.9066 88.5408 17.3163 88.5716 17.2585C88.6025 17.2007 95.2514 20.6947 103.422 25.067C111.589 29.4354 118.188 33.0257 118.157 33.0835V33.0797Z" fill="#E0E0E0"/>
<path d="M115.822 37.4488C115.792 37.5066 109.143 34.0126 100.976 29.6442C92.8052 25.2757 86.2064 21.6854 86.2372 21.6277C86.268 21.5699 92.917 25.0639 101.088 29.4361C109.254 33.8046 115.853 37.3949 115.822 37.4527V37.4488Z" fill="#E0E0E0"/>
<path d="M113.488 41.814C113.457 41.8718 106.808 38.3778 98.6414 34.0094C90.4708 29.641 83.8719 26.0507 83.9027 25.9929C83.9335 25.9351 90.5825 29.4291 98.7531 33.8014C106.92 38.1698 113.519 41.7601 113.488 41.8179V41.814Z" fill="#E0E0E0"/>
<path d="M111.153 46.1773C111.123 46.2351 104.474 42.7411 96.3069 38.3727C88.1363 34.0042 81.5374 30.414 81.5682 30.3562C81.599 30.2984 88.248 33.7924 96.4186 38.1647C104.585 42.5331 111.184 46.1234 111.153 46.1812V46.1773Z" fill="#E0E0E0"/>
<path d="M73.6864 61.0646L60.0648 131.098L58.2812 140.267L149.217 139.82C153.297 139.8 156.914 136.176 158.228 130.794L174.353 64.6741C175.351 60.5869 173.163 56.3379 170.065 56.3379L78.0278 56.4342C75.9938 56.4342 74.218 58.3334 73.6864 61.0646Z" fill="#025861"/>
<g opacity="0.5">
<path d="M73.6864 61.0646L60.0648 131.098L58.2812 140.267L149.217 139.82C153.297 139.8 156.914 136.176 158.228 130.794L174.353 64.6741C175.351 60.5869 173.163 56.3379 170.065 56.3379L78.0278 56.4342C75.9938 56.4342 74.218 58.3334 73.6864 61.0646Z" fill="black"/>
</g>
<path d="M140.495 126.352L130.869 48.7642C130.476 45.5861 127.941 43.2131 124.952 43.2247L103.838 43.294C102.274 43.2978 100.775 43.9643 99.6656 45.1431L89.6421 55.7984L30.9224 56.1065C27.336 56.1258 24.5778 59.5196 25.0516 63.3372L33.9927 135.047C34.3894 138.221 36.9165 140.59 39.902 140.582L142.237 140.382C153.635 140.617 154.722 137.254 154.722 137.254C141.659 140.147 140.495 126.364 140.495 126.356V126.352Z" fill="#025861"/>
<g opacity="0.5">
<path d="M96.3719 110.823L92.9203 114.533L66.3398 90.618L69.7914 86.9121L96.3719 110.823Z" fill="white"/>
<path d="M91.4719 86.0918L95.2895 89.5203L71.2361 115.353L67.4224 111.921L91.4719 86.0918Z" fill="white"/>
</g>
</svg>
