<svg width="739" height="713" viewBox="0 0 739 713" fill="none" xmlns="http://www.w3.org/2000/svg">
<path d="M587.98 300.16C670.72 300.16 738.05 232.84 738.05 150.08C738.05 67.32 670.73 0 587.98 0C505.23 0 437.9 67.33 437.9 150.08C437.9 161.05 439.16 171.73 441.41 182.03L373.55 206.01C342.5 138.75 274.6 91.83 195.79 91.83C87.83 91.83 0 179.69 0 287.64C0 395.59 87.83 483.47 195.8 483.47C228.65 483.47 259.59 475.24 286.8 460.88L338.28 518.16C338.07 518.38 337.82 518.58 337.61 518.8C315.41 543.33 304.98 575.1 308.25 608.23C313.65 662.73 357.14 706.22 411.64 711.6C415.56 712 419.51 712.18 423.39 712.18C456.01 712.18 487.27 698.33 509.17 674.14C531.39 649.61 541.81 617.86 538.53 584.71C533.12 530.21 489.64 486.72 435.14 481.32C408.5 478.7 382.04 485.5 360.11 499.75L311.26 445.42C359.86 409.76 391.6 352.39 391.6 287.63C391.6 268.55 388.73 250.16 383.62 232.71L450.08 209.21C473.08 262.63 526.19 300.15 587.96 300.15L587.98 300.16Z" fill="#025861"/>
<circle cx="195" cy="286" r="177" fill="#C4F0E5"/>
<circle cx="588" cy="148" r="133" fill="#F5F5F5"/>
<circle cx="423.5" cy="597.5" r="101.5" fill="white"/>
<path d="M257.625 463.5L311.5 425.5C311.5 391 268.375 328.5 233.875 328.5H232.625C274.875 328.5 296.375 302.25 296.375 302.25C296.375 302.25 257.625 278.875 257.625 228.5C257.625 194 229 166 194.5 166H195.75C161.25 166 132.875 194 132.875 228.5C132.875 278.125 94 302.25 94 302.25C94 302.25 103 328.5 145.125 328.5H157.625C123.125 328.5 74.5 387 74.5 421.5L127 463.5" fill="#025861"/>
<path d="M587 154C615.166 154 638 131.166 638 103C638 74.8335 615.166 52 587 52C558.834 52 536 74.8335 536 103C536 131.166 558.834 154 587 154Z" fill="#025861"/>
<path d="M695 243C695 214.833 666.167 188 638 188H536C507.834 188 485 210.833 485 239L502 264L536 280.5L588.5 291L643.5 280.5L673 264L695 243Z" fill="#025861"/>
<path d="M424.5 594.5C444.796 594.5 461.25 578.046 461.25 557.75C461.25 537.454 444.796 521 424.5 521C404.204 521 387.75 537.454 387.75 557.75C387.75 578.046 404.204 594.5 424.5 594.5Z" fill="#025861"/>
<path d="M507.5 669.5C507.5 649.203 481.547 619 461.25 619H387.75C367.454 619 342.5 643.203 342.5 663.5L383 699L431 705.5L477.994 692.5L507.5 669.5Z" fill="#025861"/>
</svg>
