<svg width="20" height="20" viewBox="0 0 20 20" fill="none" xmlns="http://www.w3.org/2000/svg">
<path d="M20 12V9.7979C20 9.4227 19.9978 8.75 19.9978 8.75L20 8H0V8.75V12C0 15.7712 1.19209e-07 17.6569 1.17157 18.8284C2.34315 20 4.22876 20 8 20H12C15.7712 20 17.6569 20 18.8284 18.8284C20 17.6569 20 15.7712 20 12Z" fill="#025861"/>
<path d="M9 2L8.4497 1.44975C8.1763 1.17633 8.0396 1.03961 7.89594 0.92051C7.27652 0.40704 6.51665 0.09229 5.71557 0.01738C5.52976 0 5.33642 0 4.94975 0C4.06722 0 3.62595 7.45058e-09 3.25839 0.06935C1.64031 0.37464 0.37464 1.64031 0.06935 3.25839C7.45058e-09 3.62595 0 4.06722 0 4.94975V7.25V8H20L19.9531 7.25C19.8809 6.20117 19.6973 5.51276 19.2305 4.99383C19.1598 4.91514 19.0849 4.84024 19.0062 4.76946C18.1506 4 16.8345 4 14.2021 4H13.8284C12.6747 4 12.0979 4 11.5604 3.84678C11.2651 3.7626 10.9804 3.64471 10.7121 3.49543C10.2237 3.22367 9.8158 2.81578 9 2Z" fill="#75C0AC"/>
</svg>
