<svg width="19" height="20" viewBox="0 0 19 20" fill="none" xmlns="http://www.w3.org/2000/svg">
<path fill-rule="evenodd" clip-rule="evenodd" d="M0.35791 10.7796C-0.25228 11.721 -0.000439584 13.03 0.50323 15.6479C0.8658 17.5325 1.04709 18.4747 1.67523 19.1C1.8382 19.2623 2.02054 19.4061 2.2186 19.5286C2.98195 20.0008 3.99539 20.0008 6.02227 20.0008H12.9777C15.0046 20.0008 16.0181 20.0008 16.7814 19.5286C16.9795 19.4061 17.1618 19.2623 17.3248 19.1C17.9529 18.4747 18.1342 17.5325 18.4968 15.6479C19.0004 13.03 19.2523 11.721 18.6421 10.7796C18.4864 10.5393 18.2943 10.3219 18.0721 10.1341C17.2011 9.39844 15.7933 9.39844 12.9777 9.39844H6.02227C3.20667 9.39844 1.79888 9.39844 0.92792 10.1341C0.70566 10.3219 0.51363 10.5393 0.35791 10.7796ZM6.69518 15.1815C6.69518 14.7823 7.0376 14.4586 7.4601 14.4586H11.5398C11.9622 14.4586 12.3047 14.7823 12.3047 15.1815C12.3047 15.5807 11.9622 15.9044 11.5398 15.9044H7.4601C7.0376 15.9044 6.69518 15.5807 6.69518 15.1815Z" fill="#025861"/>
<path d="M0.576198 10.4846C0.682708 10.3586 0.800338 10.241 0.927918 10.1332C1.79888 9.3975 3.20667 9.3975 6.02227 9.3975H12.9777C15.7933 9.3975 17.2011 9.3975 18.0721 10.1332C18.2 10.2413 18.3179 10.3592 18.4247 10.4857V7.75579C18.4247 6.84687 18.4247 6.09279 18.3394 5.49156C18.2494 4.85704 18.0531 4.29458 17.5839 3.83245C17.5074 3.75707 17.4266 3.68552 17.342 3.61807C16.8302 3.21023 16.2167 3.04345 15.5222 2.96608C14.8531 2.89155 14.0102 2.89157 12.9769 2.89158H12.6242C11.6421 2.89158 11.29 2.88587 10.9711 2.80533C10.7837 2.75802 10.604 2.69195 10.4352 2.60878C10.151 2.46867 9.9033 2.25762 9.2077 1.64132L8.7336 1.22128C8.5345 1.04489 8.3987 0.924499 8.2531 0.817549C7.6284 0.358789 6.86779 0.0813192 6.07145 0.0153392C5.88602 -2.08225e-05 5.6968 -1.08857e-05 5.41356 1.91143e-05L5.29714 9.10068e-06C4.65647 -0.000100899 4.23365 -0.000171009 3.86652 0.061199C2.26167 0.329469 0.963918 1.45143 0.647818 2.93575C0.575908 3.27344 0.576018 3.66035 0.576188 4.21853L0.576198 10.4846Z" fill="#75C0AC"/>
</svg>
